# xmcd
# 
# Track frame offsets:
#     150
#     30966
#     54954
#     84975
#     113354
#     144443
#     175866
# 
# Disc length: 2739
# 
# Revision: 0
# Processed by: cddbd v1.5.2PL0 Copyright (c) Steve Scherf et al.
# Submitted via: fre:ac v1.0.17
# 
DISCID=430ab107
DTITLE=Jutta Richter - Der Hund mit dem gelben Herzen CD 1
DYEAR=2008
DGENRE=Hörbuch
TTITLE0=01 Was machst du da?
TTITLE1=02 Ein kleiner schwarzer Punkt
TTITLE2=03 Im Schuppen
TTITLE3=04 Erinnerungen an Lobkowitz
TTITLE4=05 Eine Hecke und ein Garten
TTITLE5=06 Der Küchenschrank und Erfindungen
TTITLE6=07 Delikatessen
EXTD=
EXTT0=
EXTT1=
EXTT2=
EXTT3=
EXTT4=
EXTT5=
EXTT6=
PLAYORDER=
